<svg width="30" height="30" viewBox="0 0 30 30" fill="none" xmlns="http://www.w3.org/2000/svg">
<path d="M27.157 8.15447C26.8644 6.89903 26.1004 5.8328 25.0058 5.15206L18.4797 1.09355C18.3769 1.01351 18.2706 0.936698 18.1603 0.864217C16.4975 -0.228324 14.3943 -0.289203 12.6713 0.705662L6.36663 4.34557C4.67895 5.31993 3.47168 6.89323 2.96731 8.77562C2.46293 10.658 2.7218 12.6241 3.69616 14.3117L4.69073 16.0344C4.69741 16.0459 4.70485 16.0568 4.71223 16.0677V17.1247C4.71223 23.2204 8.84298 28.5076 14.7574 29.9825C14.804 29.9941 14.8516 29.9999 14.8992 29.9999C14.9465 29.9999 14.9936 29.9942 15.0397 29.9828L15.0503 29.9802C20.9673 28.5068 25.0997 23.219 25.0997 17.1214V14.1393L26.5554 11.7987C27.236 10.7041 27.4497 9.4099 27.157 8.15447ZM23.9279 17.1214C23.928 22.6348 20.2221 27.4218 14.8996 28.8095C9.58396 27.4166 5.88388 22.6325 5.88388 17.1248V16.022L6.66317 15.5721C6.58659 15.88 6.54528 16.2017 6.54528 16.5329C6.54528 18.7295 8.3324 20.5167 10.529 20.5167C12.7256 20.5167 14.5128 18.7295 14.5128 16.5329C14.5128 14.3363 12.7256 12.5492 10.529 12.5492C9.58666 12.5492 8.72017 12.8788 8.03732 13.4279C8.02642 13.4333 8.01546 13.4384 8.0048 13.4446L5.41243 14.9413L4.71077 13.7259C3.89286 12.3093 3.67559 10.6589 4.09899 9.0789C4.52245 7.4988 5.53571 6.17821 6.95239 5.3603L13.2571 1.72033C14.5941 0.948241 16.2265 0.995526 17.5168 1.84344C18.5834 2.54428 19.1981 3.72436 19.1613 5.00007C19.1245 6.27577 18.4426 7.41829 17.3373 8.0565L16.2093 8.70771C16.2082 8.70835 16.2071 8.70906 16.2059 8.7097L14.5807 9.64803C14.3005 9.80986 14.2045 10.1681 14.3663 10.4483C14.5282 10.7284 14.8865 10.8246 15.1666 10.6627L16.4866 9.90057L23.9279 14.5284V17.1214ZM7.71704 16.533C7.71704 14.9824 8.97851 13.7209 10.5291 13.7209C12.0797 13.7209 13.3411 14.9824 13.3411 16.533C13.3411 18.0836 12.0797 19.345 10.5291 19.345C8.97851 19.345 7.71704 18.0836 7.71704 16.533ZM25.5603 11.1799L24.2223 13.3315L17.6373 9.23623L17.9233 9.07111C19.3833 8.22818 20.284 6.71898 20.3327 5.03387C20.348 4.5053 20.2785 3.9892 20.1326 3.50112L24.3872 6.1471C26.0981 7.21111 26.6244 9.46885 25.5603 11.1799Z" fill="#C6373B"/>
<path d="M18.3103 23.8041C18.2881 23.543 18.1221 23.3222 17.876 23.2275C17.5853 23.1155 17.3268 22.9295 17.1284 22.6894C16.8142 22.3092 16.3511 22.0911 15.8578 22.0911C15.5129 22.0911 15.1762 22.2012 14.8982 22.3996C14.6203 22.2012 14.2836 22.0911 13.9387 22.0911C13.4454 22.0911 12.9824 22.3092 12.6681 22.6894C12.4697 22.9294 12.2112 23.1155 11.9255 23.2256C11.9238 23.2262 11.9208 23.2273 11.9192 23.2279C11.6744 23.3222 11.5085 23.543 11.4862 23.804C11.4638 24.0664 11.5907 24.3133 11.8172 24.4485C11.9045 24.5005 12.0551 24.66 12.2007 24.8144C12.7196 25.3643 13.5034 26.1948 14.8946 26.1969C14.8953 26.1969 14.896 26.1969 14.8967 26.1969C14.8979 26.197 14.8988 26.197 14.8997 26.1969C14.9004 26.1969 14.9011 26.1969 14.9018 26.1969C16.2929 26.1949 17.0768 25.3642 17.5958 24.8143C17.7414 24.66 17.892 24.5005 17.9789 24.4486C18.2056 24.3135 18.3326 24.0666 18.3103 23.8041ZM16.7437 24.0103C16.2949 24.4858 15.7864 25.0248 14.8983 25.0253C14.0103 25.0248 13.5017 24.4858 13.0529 24.0103C13.0376 23.9941 13.0224 23.9779 13.0072 23.9619C13.2165 23.812 13.4065 23.6353 13.5713 23.4358C13.6622 23.3258 13.7961 23.2628 13.9387 23.2628C14.0683 23.2628 14.1939 23.3165 14.2833 23.4103L14.4745 23.6105C14.5851 23.7263 14.7381 23.7918 14.8982 23.7918C14.8983 23.7918 14.8983 23.7918 14.8983 23.7918C15.0584 23.7918 15.2115 23.7263 15.322 23.6105L15.5132 23.4103C15.6026 23.3165 15.7283 23.2628 15.8579 23.2628C16.0005 23.2628 16.1344 23.3258 16.2252 23.4357C16.39 23.6351 16.58 23.812 16.7894 23.9619C16.7743 23.978 16.759 23.9941 16.7437 24.0103Z" fill="#C6373B"/>
<path d="M19.2679 12.5493C17.0712 12.5493 15.2841 14.3364 15.2841 16.5331C15.2841 18.7297 17.0712 20.5168 19.2679 20.5168C21.4645 20.5168 23.2516 18.7297 23.2516 16.5331C23.2516 14.3364 21.4645 12.5493 19.2679 12.5493ZM19.2679 19.3451C17.7172 19.3451 16.4558 18.0836 16.4558 16.5331C16.4558 14.9824 17.7173 13.721 19.2679 13.721C20.8184 13.721 22.0799 14.9825 22.0799 16.5331C22.0799 18.0837 20.8184 19.3451 19.2679 19.3451Z" fill="#C6373B"/>
<path d="M19.2676 14.3584C18.9441 14.3584 18.6818 14.6207 18.6818 14.9442V15.1294C18.6818 15.4529 18.9441 15.7153 19.2676 15.7153C19.5911 15.7153 19.8534 15.4529 19.8534 15.1294V14.9442C19.8534 14.6207 19.5911 14.3584 19.2676 14.3584Z" fill="#C6373B"/>
<path d="M19.2676 17.3508C18.9441 17.3508 18.6818 17.6132 18.6818 17.9367V18.1219C18.6818 18.4454 18.9441 18.7077 19.2676 18.7077C19.5911 18.7077 19.8534 18.4454 19.8534 18.1219V17.9367C19.8534 17.6131 19.5911 17.3508 19.2676 17.3508Z" fill="#C6373B"/>
<path d="M20.8568 15.947H20.6715C20.3481 15.947 20.0857 16.2093 20.0857 16.5328C20.0857 16.8563 20.3481 17.1187 20.6715 17.1187H20.8568C21.1803 17.1187 21.4426 16.8563 21.4426 16.5328C21.4426 16.2094 21.1803 15.947 20.8568 15.947Z" fill="#C6373B"/>
<path d="M17.8645 15.947H17.6793C17.3558 15.947 17.0935 16.2093 17.0935 16.5328C17.0935 16.8563 17.3558 17.1187 17.6793 17.1187H17.8645C18.188 17.1187 18.4504 16.8563 18.4504 16.5328C18.4504 16.2094 18.1881 15.947 17.8645 15.947Z" fill="#C6373B"/>
<path d="M10.5289 14.3584C10.2054 14.3584 9.94312 14.6207 9.94312 14.9442V15.1294C9.94312 15.4529 10.2054 15.7153 10.5289 15.7153C10.8524 15.7153 11.1148 15.4529 11.1148 15.1294V14.9442C11.1148 14.6207 10.8524 14.3584 10.5289 14.3584Z" fill="#C6373B"/>
<path d="M10.5289 17.3508C10.2054 17.3508 9.94312 17.6132 9.94312 17.9367V18.1219C9.94312 18.4454 10.2054 18.7077 10.5289 18.7077C10.8524 18.7077 11.1148 18.4454 11.1148 18.1219V17.9367C11.1148 17.6132 10.8524 17.3508 10.5289 17.3508Z" fill="#C6373B"/>
<path d="M12.1175 15.947H11.9323C11.6088 15.947 11.3465 16.2093 11.3465 16.5328C11.3465 16.8563 11.6088 17.1187 11.9323 17.1187H12.1175C12.441 17.1187 12.7033 16.8563 12.7033 16.5328C12.7033 16.2094 12.441 15.947 12.1175 15.947Z" fill="#C6373B"/>
<path d="M9.12529 15.947H8.94007C8.61657 15.947 8.35425 16.2093 8.35425 16.5328C8.35425 16.8563 8.61657 17.1187 8.94007 17.1187H9.12529C9.44878 17.1187 9.71111 16.8563 9.71111 16.5328C9.71111 16.2094 9.44878 15.947 9.12529 15.947Z" fill="#C6373B"/>
<path d="M12.0998 4.63479C11.938 4.35471 11.5797 4.25856 11.2995 4.42039L6.83812 6.99618C6.55792 7.15802 6.46189 7.51626 6.62373 7.79645C6.7323 7.98442 6.92912 8.08948 7.13168 8.08948C7.23105 8.08948 7.33177 8.06411 7.424 8.01085L11.8854 5.43506C12.1656 5.27323 12.2616 4.91498 12.0998 4.63479Z" fill="#C6373B"/>
</svg>
