<svg width="20" height="20" viewBox="0 0 20 20" fill="none" xmlns="http://www.w3.org/2000/svg">
<g clip-path="url(#clip0)">
<path d="M8.35557 19.1738C7.22578 19.3115 6.20979 19.3618 5.13779 18.9037C5.01952 18.8543 4.93682 18.7453 4.92116 18.6181C4.9055 18.4909 4.95928 18.3651 5.06205 18.2885C5.16481 18.2119 5.30076 18.1963 5.41819 18.2477C6.20591 18.5471 7.05781 18.6372 7.89074 18.5092C7.4043 17.5732 7.34032 16.4741 7.71487 15.488C7.99592 14.8098 8.65291 14.3634 9.3869 14.3517C11.0571 14.3649 11.8602 16.6541 11.0632 17.9227C10.6526 18.509 10.0219 18.9038 9.31519 19.0172C10.0847 19.3757 10.9741 19.3721 11.7407 19.0072C13.1262 18.2612 13.072 16.1322 13.0574 14.5786C12.4165 14.3541 11.9867 13.7501 11.9847 13.0711L11.9847 7.68431C11.7842 7.63484 11.5777 7.61394 11.3714 7.62224C11.0576 7.60681 10.744 7.65749 10.451 7.771C10.1646 7.87645 9.84654 7.85287 9.57876 7.70633C9.31099 7.5598 9.11967 7.30462 9.05406 7.00651C8.6469 4.98755 8.68195 2.90435 9.1568 0.900228C9.24013 0.620268 9.43553 0.38723 9.69667 0.256357C9.95781 0.125482 10.2614 0.108425 10.5356 0.209228C10.8536 0.322195 11.1949 0.353355 11.528 0.299841C12.398 0.0541305 13.3328 0.230619 14.0533 0.776596C14.7738 1.32257 15.1966 2.17484 15.1953 3.07883L15.1953 13.0711C15.1929 13.8849 14.5804 14.5675 13.7716 14.6578C13.789 16.5278 13.7509 18.7353 12.0785 19.635C11.0058 20.2119 9.26668 20.1384 8.35557 19.1738ZM10.4603 17.5438C10.9851 16.7073 10.4428 15.0734 9.38119 15.0652C8.93458 15.0781 8.53815 15.3547 8.37198 15.7694C8.05306 16.6484 8.16034 17.6257 8.66236 18.4146C9.3737 18.3097 10.1054 18.1078 10.4589 17.5438L10.4603 17.5438ZM10.0019 0.900942C9.92492 0.939985 9.86794 1.00966 9.84495 1.09287C9.40285 2.98318 9.3711 4.94629 9.75184 6.8499C9.7746 6.9514 9.84052 7.03791 9.93235 7.08678C10.1696 7.21377 10.2092 7.01935 10.8927 6.93516C10.4229 5.31379 10.4396 2.53766 11.0061 1.02259C10.3023 0.965156 10.2452 0.772873 10.0005 0.900942L10.0019 0.900942ZM14.4818 13.0711L14.4818 3.07883C14.4828 2.41504 14.1803 1.78721 13.6606 1.37427C13.1409 0.961321 12.4609 0.808535 11.8145 0.959448C11.7492 1.07655 11.6953 1.19958 11.6533 1.32689C11.1517 2.72245 11.1435 5.47325 11.6301 6.91233C12.142 6.93231 12.6981 7.09605 12.6981 7.6094L12.6981 13.0711C12.6981 13.5636 13.0974 13.9629 13.59 13.9629C14.0825 13.9629 14.4818 13.5636 14.4818 13.0711Z" fill="#C6373B"/>
<path d="M7.30941 0.6741C4.98383 1.86239 4.98383 6.08546 7.30941 7.27375C7.48485 7.3634 7.55441 7.5783 7.46476 7.75374C7.37512 7.92919 7.16022 7.99875 6.98477 7.9091C4.14335 6.45753 4.14157 1.49139 6.98477 0.0387511C7.09827 -0.019239 7.23408 -0.0122752 7.34105 0.0570188C7.44801 0.126313 7.50989 0.24741 7.50336 0.374694C7.49684 0.501977 7.4229 0.616111 7.30941 0.6741Z" fill="#C6373B"/>
<path d="M7.49526 1.68032C7.58524 1.58804 7.718 1.55147 7.84253 1.58466C7.96707 1.61785 8.06402 1.71562 8.09615 1.84044C8.12828 1.96525 8.09059 2.09769 7.99755 2.18689C7.13175 3.04591 7.12961 4.90059 7.99755 5.7614C8.13346 5.90078 8.13253 6.12339 7.99546 6.26163C7.85839 6.39987 7.63579 6.40269 7.49526 6.26797C6.34514 5.12783 6.34479 2.82116 7.49526 1.68032Z" fill="#C6373B"/>
</g>
<defs>
<clipPath id="clip0">
<rect width="20" height="20" fill="white"/>
</clipPath>
</defs>
</svg>
