<svg width="20" height="20" viewBox="0 0 20 20" fill="none" xmlns="http://www.w3.org/2000/svg">
<path d="M16.7835 11.906C16.3495 11.4541 15.826 11.2125 15.2712 11.2125C14.7208 11.2125 14.1929 11.4497 13.741 11.9016L12.3271 13.311C12.2108 13.2483 12.0944 13.1902 11.9826 13.132C11.8215 13.0515 11.6694 12.9754 11.5396 12.8949C10.2152 12.0537 9.01167 10.9575 7.8573 9.53915C7.29802 8.83222 6.92218 8.23714 6.64925 7.63311C7.01614 7.29754 7.35618 6.94855 7.68728 6.61298C7.81256 6.4877 7.93784 6.35794 8.06312 6.23266C9.00272 5.29306 9.00272 4.07606 8.06312 3.13647L6.84164 1.91499C6.70294 1.77629 6.55976 1.63311 6.42554 1.48993C6.15708 1.21253 5.8752 0.926175 5.58437 0.657718C5.15037 0.228188 4.63135 0 4.08549 0C3.53963 0 3.01167 0.228188 2.56424 0.657718C2.55976 0.662192 2.55976 0.662192 2.55529 0.666667L1.03404 2.20134C0.461329 2.77405 0.134708 3.47204 0.0631192 4.28188C-0.0442633 5.58837 0.340524 6.80537 0.635826 7.60179C1.36066 9.55705 2.44343 11.3691 4.05865 13.311C6.01838 15.651 8.37632 17.4989 11.0698 18.8009C12.0989 19.2886 13.4725 19.8658 15.0072 19.9642C15.1012 19.9687 15.1996 19.9732 15.2891 19.9732C16.3226 19.9732 17.1906 19.6018 17.8707 18.8635C17.8752 18.8546 17.8841 18.8501 17.8886 18.8412C18.1213 18.5593 18.3897 18.3043 18.6716 18.0313C18.864 17.8479 19.0609 17.6555 19.2533 17.4541C19.6962 16.9933 19.9289 16.4564 19.9289 15.906C19.9289 15.3512 19.6918 14.8188 19.2399 14.3714L16.7835 11.906ZM18.3853 16.6175C18.3808 16.6175 18.3808 16.6219 18.3853 16.6175C18.2108 16.8054 18.0318 16.9754 17.8394 17.1633C17.5486 17.4407 17.2533 17.7315 16.9759 18.0582C16.524 18.5414 15.9915 18.7696 15.2935 18.7696C15.2264 18.7696 15.1548 18.7696 15.0877 18.7651C13.7589 18.6801 12.524 18.1611 11.5978 17.7181C9.06536 16.4922 6.84164 14.7517 4.99377 12.5459C3.46804 10.7069 2.44791 9.00671 1.77229 7.18121C1.35618 6.06711 1.20406 5.19911 1.27117 4.38031C1.31592 3.85682 1.51726 3.42282 1.88862 3.05145L3.41435 1.52573C3.63359 1.31991 3.86625 1.20805 4.09444 1.20805C4.37632 1.20805 4.60451 1.37808 4.74768 1.52125C4.75216 1.52573 4.75663 1.5302 4.76111 1.53468C5.03404 1.78971 5.29354 2.05369 5.56647 2.33557C5.70518 2.47875 5.84835 2.62192 5.99153 2.76958L7.21301 3.99105C7.68728 4.46532 7.68728 4.9038 7.21301 5.37808C7.08325 5.50783 6.95797 5.63758 6.82822 5.76286C6.45238 6.14765 6.09444 6.50559 5.70518 6.85459C5.69623 6.86353 5.68728 6.86801 5.68281 6.87696C5.29802 7.26175 5.36961 7.63758 5.45014 7.89262C5.45462 7.90604 5.45909 7.91946 5.46357 7.93289C5.78124 8.70246 6.22867 9.42729 6.90876 10.2908L6.91323 10.2953C8.14813 11.8166 9.45014 13.0022 10.8864 13.9105C11.0698 14.0268 11.2577 14.1208 11.4367 14.2103C11.5978 14.2908 11.7499 14.3669 11.8797 14.4474C11.8976 14.4564 11.9155 14.4698 11.9334 14.4787C12.0855 14.5548 12.2287 14.5906 12.3763 14.5906C12.7477 14.5906 12.9803 14.3579 13.0564 14.2819L14.5866 12.7517C14.7387 12.5996 14.9803 12.4161 15.2622 12.4161C15.5396 12.4161 15.7678 12.5906 15.9065 12.7427C15.911 12.7472 15.911 12.7472 15.9155 12.7517L18.3808 15.217C18.8416 15.6734 18.8416 16.1432 18.3853 16.6175Z" fill="url(#paint0_linear)"/>
<defs>
<linearGradient id="paint0_linear" x1="0.0447082" y1="5.30768" x2="16.5364" y2="10.9673" gradientUnits="userSpaceOnUse">
<stop stop-color="#3D3D48"/>
<stop offset="1" stop-color="#070B0C"/>
</linearGradient>
</defs>
</svg>
