<svg width="80" height="80" viewBox="0 0 80 80" fill="none" xmlns="http://www.w3.org/2000/svg">
<path d="M80 15.7252L64.238 0H44.3791L36.5526 7.8009C17.0922 6.17719 1.40107 17.1248 1.18127 17.2822C0.544546 17.736 0.395646 18.6223 0.852271 19.2605C1.1288 19.6462 1.56415 19.8532 2.00659 19.8532C2.29163 19.8532 2.5795 19.7667 2.82909 19.588C3.0262 19.4477 16.6016 9.97908 33.8583 10.4853L8.50711 35.7542L8.51845 35.7656L0 44.2628L35.6592 80L49.8968 65.8007C52.8209 67.3322 56.2229 68.0852 59.588 68.0838C64.5528 68.0838 69.4225 66.47 72.4941 63.3984C82.9411 52.95 78.7946 41.489 77.3765 38.3933L79.9986 35.7769V15.7252H80ZM63.0666 2.83618L77.1638 16.9022V34.5999L49.4572 62.2158C43.6658 58.0636 41.9031 50.2726 44.5038 40.0567C44.6981 39.298 44.2387 38.5252 43.48 38.3323C42.7185 38.1295 41.9499 38.5975 41.7556 39.3562C38.0842 53.7739 43.0177 60.8842 47.4265 64.2394L44.1749 67.4811L12.5302 35.7698L37.602 10.7633C43.5551 11.444 49.8415 13.4094 56.1024 17.3815C56.0471 17.6949 56.006 18.014 56.006 18.343C56.006 21.4202 58.5089 23.9231 61.5861 23.9231C64.6634 23.9231 67.1677 21.4202 67.1677 18.343C67.1677 15.2657 64.6634 12.7628 61.5861 12.7628C59.8617 12.7628 58.3373 13.5654 57.3134 14.7992C51.5149 11.1731 45.7035 9.15234 40.129 8.24476L45.5504 2.83618H63.0666ZM59.2959 19.5696C59.9227 20.0404 60.8119 19.9142 61.2798 19.286C61.7506 18.6606 61.623 17.7715 60.9962 17.3021C60.558 16.9745 60.1184 16.6852 59.6802 16.3775C60.1751 15.8968 60.8459 15.599 61.5861 15.599C63.0992 15.599 64.3316 16.8299 64.3316 18.3444C64.3316 19.8561 63.1007 21.0884 61.5861 21.0884C60.4474 21.0884 59.4703 20.3907 59.0548 19.4009C59.1357 19.459 59.2165 19.5086 59.2959 19.5696ZM4.01035 44.2684L10.5222 37.7736L42.1768 69.4962L35.6649 75.9911L4.01035 44.2684ZM70.4889 61.3933C66.8359 65.0434 58.6195 66.7083 52.0112 63.692L75.2324 40.5318C76.6434 44.043 78.9265 52.9542 70.4889 61.3933Z" fill="#BDBDBD"/>
</svg>
