<svg width="30" height="30" viewBox="0 0 30 30" fill="none" xmlns="http://www.w3.org/2000/svg">
<g clip-path="url(#clip0)">
<path d="M4.75009 10.7499C1.16511 16.8999 6.50012 29.1815 6.72603 29.6999C6.80568 29.8821 6.98535 30 7.18402 30H22.8162C23.0149 30 23.1945 29.8821 23.2742 29.6999C23.5026 29.1815 28.8351 16.8999 25.2501 10.7499C21.9002 5.01045 22.7951 0.650024 22.8041 0.608597C22.837 0.46051 22.8009 0.305557 22.7061 0.187225C22.6111 0.0688934 22.4678 0 22.3161 0H7.68412C7.53261 0 7.38933 0.0686646 7.29457 0.186539C7.19958 0.304413 7.16319 0.459137 7.19569 0.606995C7.20508 0.650024 8.1 5.01045 4.75009 10.7499ZM7.51567 29C6.92218 27.564 4.44362 21.24 4.51869 15.9666C6.59419 15.837 10.0487 15.913 11.7436 16.9295C12.2196 17.2135 12.6465 17.457 13.0381 17.672C13.0436 17.6864 13.0427 17.702 13.0496 17.7166C13.657 19.0858 14.145 20.5048 14.5087 21.958C14.505 21.9717 14.5021 21.9859 14.5 21.9999V29H7.51567ZM15.0001 20.0551C14.7646 19.314 14.5401 18.701 14.3597 18.2435C14.7811 18.3385 15.2185 18.3385 15.6401 18.2435C15.4597 18.7001 15.2352 19.3144 15.0001 20.0551ZM22.4845 29H15.5002V21.9999C15.4982 21.9859 15.4952 21.9717 15.4915 21.958C15.855 20.5048 16.343 19.0858 16.9502 17.7166C16.957 17.702 16.9561 17.6871 16.9616 17.6724C17.3356 17.4685 17.7673 17.2206 18.2566 16.929C20.149 15.7935 24.0066 15.883 25.4801 15.965C25.5557 21.2375 23.078 27.5636 22.4845 29ZM25.4296 14.9604C23.6546 14.8654 19.8142 14.829 17.7437 16.0705C17.1408 16.4305 16.6242 16.7235 16.1935 16.9494L16.1576 16.9691L16.0411 17.029C15.9937 17.0535 15.9486 17.0789 15.8937 17.1034C15.3297 17.3861 14.6655 17.3861 14.1015 17.1034L14.0182 17.062C13.9347 17.0206 13.8436 16.9755 13.7495 16.9249C13.3155 16.6914 12.8127 16.4044 12.2551 16.0721C10.1327 14.8 6.11056 14.8785 4.5695 14.9636C4.63862 13.6633 4.99591 12.3951 5.61549 11.25C5.65921 11.1756 5.6956 11.104 5.73771 11.03C6.42115 11.1463 7.08697 11.3491 7.71914 11.6341C7.91507 11.7135 8.10962 11.792 8.30211 11.865C8.64612 11.9959 8.99012 12.1351 9.33551 12.2745C10.0732 12.5745 10.8356 12.8815 11.611 13.1106C12.7159 13.3955 13.8548 13.5265 14.9955 13.4999H15.0047C16.145 13.5271 17.2839 13.3967 18.3887 13.1124C19.1646 12.8835 19.927 12.575 20.6647 12.2765C21.0101 12.1369 21.3541 11.998 21.6981 11.8671C21.8906 11.7941 22.0851 11.7169 22.2815 11.6359C22.9132 11.3512 23.5788 11.1481 24.262 11.0321C24.3041 11.106 24.3405 11.1774 24.384 11.2521C25.0025 12.3956 25.3598 13.6622 25.4296 14.9604ZM8.2632 0.999985H21.737C21.5951 2.33849 21.5475 5.74997 23.7555 10.0925C23.1213 10.2409 22.5022 10.4473 21.9057 10.7089C21.7162 10.7856 21.528 10.8591 21.3426 10.9321C20.9927 11.0651 20.6425 11.2074 20.2886 11.3496C19.5732 11.6391 18.8336 11.938 18.1042 12.1534C17.09 12.4093 16.0456 12.526 15.0001 12.4999C13.9541 12.526 12.9093 12.4095 11.8946 12.1534C11.1656 11.938 10.4261 11.6391 9.71064 11.3496C9.36068 11.2074 9.00752 11.0651 8.65664 10.9321C8.47102 10.8616 8.28311 10.7856 8.09359 10.7089C7.49713 10.4473 6.87777 10.2409 6.24354 10.0921C8.45271 5.74997 8.4051 2.33849 8.2632 0.999985Z" fill="#C6373B"/>
<path d="M15.0001 9.49997C15.8284 9.49997 16.5002 8.82843 16.5002 8.00011C16.5002 7.72385 16.2763 7.5 16.0001 7.5C15.724 7.5 15.5002 7.72385 15.5002 8.00011C15.5002 8.27614 15.2761 8.49998 15.0001 8.49998C14.7241 8.49998 14.5 8.27614 14.5 8.00011C14.5 7.72385 14.2761 7.5 14.0001 7.5C13.7238 7.5 13.5 7.72385 13.5 8.00011C13.5 8.82843 14.1718 9.49997 15.0001 9.49997Z" fill="#C6373B"/>
</g>
<defs>
<clipPath id="clip0">
<rect width="30" height="30" fill="white"/>
</clipPath>
</defs>
</svg>
